<?xml version="1.0" encoding="UTF-8"?>
<!DOCTYPE svg PUBLIC "-//W3C//DTD SVG 1.1//EN" "http://www.w3.org/Graphics/SVG/1.1/DTD/svg11.dtd">
<svg xmlns="http://www.w3.org/2000/svg" version="1.1" width="240px" height="240px" style="shape-rendering:geometricPrecision; text-rendering:geometricPrecision; image-rendering:optimizeQuality; fill-rule:evenodd; clip-rule:evenodd" xmlns:xlink="http://www.w3.org/1999/xlink">
<g><path style="opacity:1" fill="#000000" d="M -0.5,-0.5 C 79.5,-0.5 159.5,-0.5 239.5,-0.5C 239.5,79.5 239.5,159.5 239.5,239.5C 159.5,239.5 79.5,239.5 -0.5,239.5C -0.5,159.5 -0.5,79.5 -0.5,-0.5 Z"/></g>
<g><path style="opacity:1" fill="#929292" d="M 88.5,51.5 C 72.9909,51.1705 57.6576,51.5038 42.5,52.5C 41.9569,52.44 41.6236,52.1067 41.5,51.5C 57.3283,50.1735 72.9949,50.1735 88.5,51.5 Z"/></g>
<g><path style="opacity:1" fill="#919191" d="M 178.5,51.5 C 183.015,50.1876 187.682,50.1876 192.5,51.5C 192.376,52.1067 192.043,52.44 191.5,52.5C 187.366,51.5151 183.032,51.1818 178.5,51.5 Z"/></g>
<g><path style="opacity:1" fill="#f5f5f5" d="M 88.5,51.5 C 101.81,67.8142 115.143,84.1476 128.5,100.5C 145.187,84.1455 161.854,67.8121 178.5,51.5C 183.032,51.1818 187.366,51.5151 191.5,52.5C 172.355,70.8123 153.688,89.6457 135.5,109C 155.963,134.967 176.63,160.8 197.5,186.5C 181.844,187.666 166.177,187.833 150.5,187C 136.659,169.664 122.659,152.497 108.5,135.5C 91.0139,152.486 73.6805,169.653 56.5,187C 51.5,187.667 46.5,187.667 41.5,187C 61.6806,166.986 81.6806,146.82 101.5,126.5C 81.8097,101.814 62.1431,77.1477 42.5,52.5C 57.6576,51.5038 72.9909,51.1705 88.5,51.5 Z"/></g>
<g><path style="opacity:1" fill="#a3a3a3" d="M 81.5,60.5 C 74.6457,60.176 67.979,60.5093 61.5,61.5C 60.9569,61.44 60.6236,61.1067 60.5,60.5C 67.656,59.1812 74.656,59.1812 81.5,60.5 Z"/></g>
<g><path style="opacity:1" fill="#040404" d="M 61.5,61.5 C 67.979,60.5093 74.6457,60.176 81.5,60.5C 113.447,99.4562 145.447,138.456 177.5,177.5C 170.858,178.664 164.192,178.831 157.5,178C 125.601,139.004 93.6008,100.171 61.5,61.5 Z"/></g>
</svg>
